
<svg width="72px" height="72px" viewBox="0 0 72 72" version="1.1" xmlns="http://www.w3.org/2000/svg" xmlns:xlink="http://www.w3.org/1999/xlink">
    <!-- Generator: Sketch 48.1 (47250) - http://www.bohemiancoding.com/sketch -->
    <desc>Created with Sketch.</desc>
    <defs>
        <rect id="path-1" x="0" y="0" width="54" height="54"></rect>
    </defs>
    <g id="Page-2" stroke="none" stroke-width="1" fill="none" fill-rule="evenodd">
        <g id="Group">
            <circle id="Oval" fill="#212121" cx="36" cy="36" r="36"></circle>
            <g id="rocket" transform="translate(18.000000, 0.000000)">
                <mask id="mask-2" fill="white">
                    <use xlink:href="#path-1"></use>
                </mask>
                <g id="Rectangle"></g>
                <g id="Group-2" mask="url(#mask-2)" fill-rule="nonzero">
                    <g transform="translate(-0.687500, -0.687500)" id="Shape">
                        <path d="M16.9330625,38.3508125 C19.455875,40.8635 20.21525,44.9961875 17.694125,47.5105625 C15.1713125,50.02325 7.5674375,52.8228125 5.044625,50.310125 C2.5235,47.7974375 5.334875,40.2205625 7.856,37.707875 C10.3788125,35.1951875 14.4119375,35.8364375 16.9330625,38.3508125 Z" fill="#80DEEA"></path>
                        <path d="M40.229,32.7635 C44.0275625,40.6390625 34.758125,58.970375 30.471875,53.783 C28.73375,51.680375 28.8485,48.325625 24.3108125,44.005625 C24.3040625,44.032625 25.962875,44.29925 27.9051875,42.540875 C32.3871875,39.08825 40.229,32.7921875 40.229,32.7635 Z" fill="#80DEEA"></path>
                        <path d="M24.2669375,15.12575 C15.7535,11.268125 -3.9649375,20.4768125 1.6544375,24.808625 C3.9325625,26.5653125 7.5471875,26.469125 12.23,31.0506875 C12.2013125,31.0574375 11.906,29.3901875 13.792625,27.447875 C17.4865625,22.9625 24.234875,15.12575 24.2669375,15.12575 Z" fill="#80DEEA"></path>
                        <path d="M20.5173125,14.251625 L20.1494375,14.2330625 C18.281375,16.5145625 13.7166875,22.139 10.934,25.6979375 C9.79325,26.9365625 9.4844375,28.062125 9.418625,28.727 C9.9636875,29.101625 10.525625,29.533625 11.106125,30.02975 C11.247875,29.358125 11.6208125,28.4215625 12.554,27.407375 C16.1061875,22.86125 22.59125,14.913125 22.621625,14.9148125 C21.9854375,14.6110625 21.2699375,14.4035 20.5173125,14.251625 Z" fill="#52B4C1"></path>
                        <path d="M40.2813125,32.888375 C39.1709375,33.82325 32.1340625,39.5928125 27.9524375,42.885125 C26.570375,44.16425 25.3435625,44.403875 24.731,44.4275 C25.33175,45.031625 25.8515,45.6171875 26.293625,46.1825 C26.84375,46.1909375 28.1684375,46.017125 29.6635625,44.6350625 C33.1634375,41.8776875 38.6444375,37.404125 40.995125,35.4618125 C40.8685625,34.5303125 40.6356875,33.66125 40.2813125,32.888375 Z" fill="#52B4C1"></path>
                        <path d="M10.9626875,36.189125 C11.3136875,37.761875 12.392,39.6366875 14.0710625,41.312375 C15.7416875,42.979625 17.60975,44.052875 19.1808125,44.410625 C19.4474375,42.297875 18.5733125,39.9843125 16.9330625,38.3508125 C15.30125,36.7240625 13.04,35.9005625 10.9626875,36.189125 Z" fill="#52B4C1"></path>
                        <path d="M54.373625,0.9575 C55.642625,2.1573125 53.7745625,19.9705625 41.59925,32.064875 C34.0611875,39.554 29.061125,42.453125 27.8646875,43.4909375 C24.5555,44.991125 22.3600625,45.79775 15.8024375,39.280625 C9.26,32.780375 10.518875,30.978125 11.970125,27.8646875 C13.04675,26.6564375 16.0285625,21.636125 23.5683125,14.1453125 C35.7385625,2.0526875 53.0455625,-0.220375 54.373625,0.9575 Z" fill="#FAFAFA"></path>
                        <path d="M39.1540625,16.1500625 C41.778125,18.7791875 41.778125,23.0418125 39.1540625,25.672625 C36.5283125,28.30175 32.274125,28.30175 29.648375,25.672625 C27.0243125,23.0418125 27.0243125,18.7791875 29.648375,16.1500625 C32.274125,13.51925 36.5283125,13.51925 39.1540625,16.1500625 Z" fill="#212121"></path>
                        <path d="M36.8,18.5361875 C38.123,19.85075 38.123,21.9820625 36.8,23.296625 C35.4786875,24.6111875 33.3321875,24.6111875 32.0075,23.296625 C30.6861875,21.9820625 30.6861875,19.85075 32.0075,18.5361875 C33.333875,17.221625 35.4786875,17.221625 36.8,18.5361875 Z" fill="#CCD0D2"></path>
                    </g>
                </g>
            </g>
        </g>
    </g>
</svg>
