<svg width="72" height="72" xmlns="http://www.w3.org/2000/svg">
  <g fill="none" fill-rule="evenodd">
    <circle fill="#212121" cx="36" cy="36" r="36"/>
    <path d="M33.246 38.663c2.522 2.513 3.282 6.646.76 9.16-2.522 2.513-10.126 5.312-12.649 2.8-2.521-2.513.29-10.09 2.812-12.603 2.522-2.512 6.555-1.871 9.077.643zM56.541 33.076c3.8 7.876-5.47 26.207-9.757 21.02-1.738-2.103-1.623-5.458-6.16-9.778-.007.027 1.651.294 3.594-1.465 4.482-3.452 12.323-9.748 12.323-9.777zM40.58 15.438c-8.514-3.857-28.232 5.351-22.613 9.683 2.278 1.757 5.893 1.66 10.576 6.242-.03.007-.325-1.66 1.562-3.603C33.8 23.275 40.547 15.438 40.58 15.438z" fill="#80DEEA" fill-rule="nonzero"/>
    <path d="M36.83 14.564l-.368-.018c-1.868 2.281-6.433 7.905-9.216 11.464-1.14 1.24-1.45 2.365-1.515 3.03.545.374 1.107.806 1.688 1.302.141-.671.514-1.608 1.447-2.622 3.553-4.546 10.038-12.494 10.068-12.493-.636-.303-1.352-.511-2.104-.663zM56.594 33.2c-1.11.936-8.147 6.705-12.33 9.998-1.381 1.279-2.608 1.518-3.22 1.542.6.604 1.12 1.19 1.562 1.755.55.008 1.875-.165 3.37-1.547 3.5-2.758 8.98-7.231 11.332-9.174-.127-.931-.36-1.8-.714-2.573zM27.275 36.502c.351 1.572 1.43 3.447 3.109 5.123 1.67 1.667 3.538 2.74 5.11 3.098.266-2.113-.608-4.426-2.248-6.06-1.632-1.626-3.894-2.45-5.97-2.161z" fill="#52B4C1" fill-rule="nonzero"/>
    <path d="M70.686 1.27c1.27 1.2-.599 19.013-12.774 31.107-7.538 7.49-12.538 10.389-13.735 11.426-3.309 1.5-5.504 2.307-12.062-4.21-6.543-6.5-5.284-8.302-3.832-11.416 1.076-1.208 4.058-6.228 11.598-13.72C52.05 2.366 69.358.093 70.686 1.27z" fill="#FAFAFA" fill-rule="nonzero"/>
    <path d="M55.467 16.463a6.743 6.743 0 0 1 0 9.522 6.714 6.714 0 0 1-9.506 0 6.743 6.743 0 0 1 0-9.522 6.71 6.71 0 0 1 9.506 0z" fill="#212121" fill-rule="nonzero"/>
    <path d="M53.112 18.849a3.351 3.351 0 0 1 0 4.76 3.405 3.405 0 0 1-4.792 0 3.354 3.354 0 0 1 0-4.76 3.405 3.405 0 0 1 4.792 0z" fill="#CCD0D2" fill-rule="nonzero"/>
  </g>
</svg>
