<svg width="72" height="72" xmlns="http://www.w3.org/2000/svg">
  <g fill="none" fill-rule="evenodd">
    <circle fill="#212121" cx="36" cy="36" r="36"/>
    <path d="M21.25 0C18.35 0 16 1.568 16 3.5v49h10.5v-49c0-1.932-2.35-3.5-5.25-3.5z" fill="#FAFAFA" fill-rule="nonzero"/>
    <path d="M23 .215A7.5 7.5 0 0 0 21.25 0C18.35 0 16 1.568 16 3.5v49h3.5v-49c0-1.522 1.465-2.804 3.5-3.285z" fill="#E4E4E4" fill-rule="nonzero"/>
    <path d="M25.772 50.75c-.91-1.043-2.585-1.75-4.522-1.75-2.9 0-5.25 1.568-5.25 3.5s2.35 3.5 5.25 3.5h45.5c.968 0 1.75-.782 1.75-1.75v-3.5H25.772z" fill="#56B7C4" fill-rule="nonzero"/>
    <path d="M26.5 3.5h43.75c.968 0 1.75.782 1.75 1.75V49c0 .968-.782 1.75-1.75 1.75H26.5V3.5z" fill="#80DEEA" fill-rule="nonzero"/>
    <path d="M72 15.75V14H61.5V3.5h-1.75V14h-10.5V3.5H47.5V14H37V3.5h-1.75V14H26.5v1.75h8.75v10.5H26.5V28h8.75v10.5H26.5v1.75h8.75v10.5H37v-10.5h10.5v10.5h1.75v-10.5h10.5v10.5h1.75v-10.5H72V38.5H61.5V28H72v-1.75H61.5v-10.5H72zm-35 0h10.5v10.5H37v-10.5zm0 22.75V28h10.5v10.5H37zm22.75 0h-10.5V28h10.5v10.5zm0-12.25h-10.5v-10.5h10.5v10.5z" fill="#67C3CF" fill-rule="nonzero"/>
    <path d="M61.593 40.25h-26.5v-26.5h1.656c13.7 0 24.844 11.145 24.844 24.844v1.656zm-23.188-3.313h19.81c-.805-10.554-9.255-19.004-19.81-19.812v19.813z" fill="#FAFAFA" fill-rule="nonzero"/>
  </g>
</svg>
